<svg width="19" height="122" viewBox="0 0 19 122" fill="none" xmlns="http://www.w3.org/2000/svg">
<path d="M11.6833 99.3652V89.4592L13.1759 87.674C13.4911 87.2965 13.6682 86.7848 13.6682 86.2512C13.6682 85.7177 13.4911 85.2059 13.1759 84.8284C12.9834 84.5987 12.7464 84.4295 12.486 84.3359C12.2256 84.2422 11.9499 84.2269 11.6833 84.2915V78.7211L13.1759 76.9359C13.4911 76.5584 13.6682 76.0467 13.6682 75.5131C13.6682 74.9795 13.4911 74.4678 13.1759 74.0903C12.9834 73.8606 12.7464 73.6914 12.486 73.5977C12.2256 73.5041 11.9499 73.4888 11.6833 73.5534V67.983L13.1759 66.1978C13.4911 65.8203 13.6682 65.3085 13.6682 64.775C13.6682 64.2414 13.4911 63.7297 13.1759 63.3522C12.9834 63.1225 12.7464 62.9533 12.486 62.8596C12.2256 62.7659 11.9499 62.7507 11.6833 62.8153V57.2449L13.1759 55.4597C13.4911 55.0821 13.6682 54.5704 13.6682 54.0368C13.6682 53.5033 13.4911 52.9916 13.1759 52.6141C12.9834 52.3844 12.7464 52.2151 12.486 52.1215C12.2256 52.0278 11.9499 52.0126 11.6833 52.0771V46.5067L13.1759 44.7215C13.4911 44.344 13.6682 43.8323 13.6682 43.2987C13.6682 42.7652 13.4911 42.2534 13.1759 41.8759C12.9834 41.6462 12.7464 41.477 12.486 41.3833C12.2256 41.2897 11.9499 41.2744 11.6833 41.339V35.7686L13.1759 33.9834C13.4911 33.6059 13.6682 33.0942 13.6682 32.5606C13.6682 32.027 13.4911 31.5153 13.1759 31.1378C12.9834 30.9081 12.7464 30.7389 12.486 30.6452C12.2256 30.5515 11.9499 30.5363 11.6833 30.6009V25.0305L13.1759 23.2453C13.4911 22.8678 13.6682 22.356 13.6682 21.8225C13.6682 21.2889 13.4911 20.7772 13.1759 20.3997C12.9834 20.17 12.7464 20.0008 12.486 19.9071C12.2256 19.8134 11.9499 19.7982 11.6833 19.8628V14.6145L13.1759 12.8293C13.4911 12.4518 13.6682 11.94 13.6682 11.4065C13.6682 10.8729 13.4911 10.3612 13.1759 9.98369C12.9823 9.75636 12.7448 9.58965 12.4844 9.49834C12.2241 9.40703 11.9489 9.39393 11.6833 9.46021V5.09784H13.9278C14.3742 5.09784 14.8024 4.88572 15.1181 4.50813C15.4338 4.13055 15.6111 3.61843 15.6111 3.08444C15.6111 2.55046 15.4338 2.03834 15.1181 1.66076C14.8024 1.28317 14.3742 1.07104 13.9278 1.07104H6.07223C5.62579 1.07104 5.19762 1.28317 4.88194 1.66076C4.56625 2.03834 4.3889 2.55046 4.3889 3.08444C4.3889 3.61843 4.56625 4.13055 4.88194 4.50813C5.19762 4.88572 5.62579 5.09784 6.07223 5.09784H8.31668V12.9367L6.82412 14.7219C6.53515 15.0072 6.33735 15.403 6.2641 15.8425C6.19085 16.282 6.24666 16.7382 6.42209 17.1342C6.59752 17.5302 6.88182 17.8416 7.22699 18.016C7.57217 18.1903 7.95706 18.2168 8.31668 18.091V23.3661L6.82412 25.1513C6.53515 25.4366 6.33735 25.8324 6.2641 26.2719C6.19085 26.7114 6.24666 27.1676 6.42209 27.5636C6.59752 27.9596 6.88182 28.271 7.22699 28.4454C7.57217 28.6197 7.95706 28.6462 8.31668 28.5204V34.1042L6.82412 35.8894C6.53515 36.1747 6.33735 36.5705 6.2641 37.01C6.19085 37.4495 6.24666 37.9057 6.42209 38.3017C6.59752 38.6977 6.88182 39.0092 7.22699 39.1835C7.57217 39.3578 7.95706 39.3843 8.31668 39.2585V44.8423L6.82412 46.6275C6.53515 46.9128 6.33735 47.3086 6.2641 47.7481C6.19085 48.1876 6.24666 48.6439 6.42209 49.0399C6.59752 49.4358 6.88182 49.7473 7.22699 49.9216C7.57217 50.0959 7.95706 50.1224 8.31668 49.9966V55.5805L6.82412 57.3657C6.53515 57.6509 6.33735 58.0467 6.2641 58.4862C6.19085 58.9257 6.24666 59.382 6.42209 59.778C6.59752 60.174 6.88182 60.4854 7.22699 60.6597C7.57217 60.8341 7.95706 60.8605 8.31668 60.7348V66.3186L6.82412 68.1038C6.53515 68.3891 6.33735 68.7849 6.2641 69.2244C6.19085 69.6639 6.24666 70.1201 6.42209 70.5161C6.59752 70.9121 6.88182 71.2236 7.22699 71.3979C7.57217 71.5722 7.95706 71.5987 8.31668 71.4729V77.0567L6.82412 78.8419C6.53515 79.1272 6.33735 79.523 6.2641 79.9625C6.19085 80.402 6.24666 80.8582 6.42209 81.2542C6.59752 81.6502 6.88182 81.9617 7.22699 82.136C7.57217 82.3103 7.95706 82.3368 8.31668 82.211V87.7948L6.82412 89.5801C6.53515 89.8653 6.33735 90.2611 6.2641 90.7006C6.19085 91.1401 6.24666 91.5964 6.42209 91.9924C6.59752 92.3884 6.88182 92.6998 7.22699 92.8741C7.57217 93.0484 7.95706 93.0749 8.31668 92.9491V99.3652C5.06223 100.52 2.70557 104.976 2.70557 110.466C2.70557 116.868 5.9039 121.875 10 121.875C14.0961 121.875 17.2945 116.868 17.2945 110.466C17.2945 104.976 14.9378 100.52 11.6833 99.3652ZM10 117.848C7.86779 117.848 6.07223 114.466 6.07223 110.466C6.07223 106.466 7.86779 103.083 10 103.083C12.1322 103.083 13.9278 106.466 13.9278 110.466C13.9278 114.466 12.1322 117.848 10 117.848Z" fill="white"/>
</svg>
